# xmcd
# 
# Track frame offsets:
#     150
#     14362
#     27330
#     37930
#     50240
#     64452
#     73685
#     88100
#     109460
#     120752
#     130157
#     143075
#     158415
#     169355
#     189547
#     203697
# 
# Disc length: 2885
# 
# Revision: 3
# Processed by: cddbd v1.5.2PL0 Copyright (c) Steve Scherf et al.
# Submitted via: fre:ac v1.1beta1pre5
# 
DISCID=e10b4310
DTITLE=Various Artist - Lonesome Valley
DYEAR=2002
DGENRE=Country
TTITLE0=The Carter Family - Can The Circle Be Unbroken (Bye And Bye)
TTITLE1=Ralph Stanley and The Clinch Mountain Boys - Man of Constant Sorrow
TTITLE2=Bill Monroe and His Blue Grass Boys - Blue Grass Breakdown
TTITLE3=Lester Flatt, Earl Scruggs and The Foggy Mountain Boys - Don't Get Above Your Raisin'
TTITLE4=Country Gentlemen - Roving Gambler
TTITLE5=Doc Watson - Down In The Valley To Pray
TTITLE6=Hazel Dickens and Alice Gerrard - The One I Love Is Gone
TTITLE7=Old and In The Way - Angel Band (live)
TTITLE8=The Kentucky Colonels - Sunny Side Of The Mountain
TTITLE9=Del McCoury and The Dixie Pals - Standing On The Mountain
TTITLE10=The Johnson Mountain Boys - Five Speed
TTITLE11=Ricky Scaggs - Little Cabin On The Hill
TTITLE12=The Whitstein Brothers - Mansion On The Hill
TTITLE13=The Cox Family - When God Dips His Pen Of Love In My Heart
TTITLE14=Gillian Welch - Acony Bell
TTITLE15=The Carter Family - Keep On The Sunny Side
EXTD=Classic American Bluegrass, Appalacian and Old Timey Country.\n\nLabel: manteca MANTCD030
EXTT0=
EXTT1=
EXTT2=
EXTT3=
EXTT4=
EXTT5=
EXTT6=
EXTT7=
EXTT8=
EXTT9=
EXTT10=
EXTT11=
EXTT12=
EXTT13=
EXTT14=
EXTT15=
PLAYORDER=
